# This file uses centimeters as units for non-parametric coordinates.

mtllib Fence_Main.mtl
g default
v -3.347718 0.000000 4.024370
v 3.347719 0.000000 4.024370
v -3.704394 110.000000 5.419011
v 3.704395 110.000000 5.419011
v -3.704394 110.000000 -5.419013
v 3.704395 110.000000 -5.419013
v -3.347718 0.000000 -4.024373
v 3.347719 0.000000 -4.024373
v -5.099250 111.294144 -0.000001
v 5.099250 111.294144 -0.000001
v 4.504240 0.000000 -0.000001
v -4.504240 0.000000 -0.000001
v -2.107766 52.083424 -7.184649
v 1.681949 52.083424 -7.184649
v 1.681949 63.144260 -7.184649
v -2.107766 63.144260 -7.184649
v 1.681948 63.144245 -142.517075
v 1.681948 52.083447 -142.517075
v -2.107765 52.083447 -142.517075
v -2.107765 63.144245 -142.517075
v -2.107766 54.412148 -5.847477
v 1.681949 54.412148 -5.847477
v 1.681949 54.412148 -4.240008
v -2.107766 54.412148 -4.240008
v -2.107766 60.815540 -4.240009
v 1.681949 60.815540 -4.240009
v 1.681949 60.815540 -5.847477
v -2.107766 60.815540 -5.847477
v -2.107765 54.412155 -145.557953
v 1.681948 54.412155 -145.557953
v 1.681948 54.412159 -143.745209
v -2.107765 54.412159 -143.745209
v 1.681948 60.815536 -145.557953
v 1.681948 60.815533 -143.745209
v -2.107765 60.815533 -143.745209
v -2.107765 60.815536 -145.557953
v -2.107766 13.849573 -6.507614
v 1.681949 13.849573 -6.507614
v 1.681949 24.910408 -6.507614
v -2.107766 24.910408 -6.507614
v 1.681948 24.910389 -143.184402
v 1.681948 13.849590 -143.184402
v -2.107765 13.849590 -143.184402
v -2.107765 24.910389 -143.184402
v -2.107766 16.178295 -5.157160
v 1.681949 16.178295 -5.157160
v 1.681949 16.178295 -3.533723
v -2.107766 16.178295 -3.533723
v -2.107766 22.581686 -3.533723
v 1.681949 22.581686 -3.533723
v 1.681949 22.581686 -5.157160
v -2.107766 22.581686 -5.157160
v -2.107765 16.178303 -146.255493
v 1.681948 16.178303 -146.255493
v 1.681948 16.178303 -144.424744
v -2.107765 16.178303 -144.424744
v 1.681948 22.581680 -146.255478
v 1.681948 22.581676 -144.424728
v -2.107765 22.581676 -144.424728
v -2.107765 22.581680 -146.255478
v -2.107766 86.377029 -7.626617
v 1.681949 86.377029 -7.626617
v 1.681949 97.437851 -7.626617
v -2.107766 97.437851 -7.626617
v 1.681948 97.437851 -142.081436
v 1.681948 86.377045 -142.081436
v -2.107765 86.377045 -142.081436
v -2.107765 97.437851 -142.081436
v -2.107766 88.705750 -6.298118
v 1.681949 88.705750 -6.298118
v 1.681949 88.705750 -4.701074
v -2.107766 88.705750 -4.701074
v -2.107766 95.109131 -4.701074
v 1.681949 95.109131 -4.701074
v 1.681949 95.109131 -6.298118
v -2.107766 95.109131 -6.298118
v -2.107765 88.705750 -145.102600
v 1.681948 88.705750 -145.102600
v 1.681948 88.705750 -143.301620
v -2.107765 88.705750 -143.301620
v 1.681948 95.109131 -145.102600
v 1.681948 95.109131 -143.301605
v -2.107765 95.109131 -143.301605
v -2.107765 95.109131 -145.102600
vt 0.939469 0.004304
vt 0.960531 0.004304
vt 0.939469 0.025366
vt 0.960531 0.025366
vt 0.939469 0.046429
vt 0.960531 0.046429
vt 0.939469 0.067491
vt 0.960531 0.067491
vt 0.981593 0.004304
vt 0.981593 0.025366
vt 0.918407 0.004304
vt 0.918407 0.025366
vt 0.928938 0.025366
vt 0.939469 0.035897
vt 0.960531 0.035897
vt 0.971062 0.025366
vt 0.971062 0.004304
vt 0.928938 0.004304
vt 0.939469 0.023365
vt 0.960531 0.023365
vt 0.960531 0.024313
vt 0.939469 0.024313
vt 0.939469 0.047482
vt 0.960531 0.047482
vt 0.960531 0.048429
vt 0.939469 0.048429
vt 0.981593 0.023365
vt 0.981593 0.024313
vt 0.918407 0.024313
vt 0.918407 0.023365
vt 0.939469 0.005357
vt 0.960531 0.005357
vt 0.960531 0.006305
vt 0.939469 0.006305
vt 0.981593 0.005357
vt 0.981593 0.006305
vt 0.939469 0.065490
vt 0.960531 0.065490
vt 0.960531 0.066438
vt 0.939469 0.066438
vt 0.918407 0.006305
vt 0.918407 0.005357
vt 0.960531 0.023365
vt 0.939469 0.023365
vt 0.939469 0.006305
vt 0.960531 0.006305
vt 0.981593 0.006305
vt 0.981593 0.023365
vt 0.939469 0.065490
vt 0.939469 0.048429
vt 0.960531 0.048429
vt 0.960531 0.065490
vt 0.918407 0.023365
vt 0.918407 0.006305
vt 0.939469 0.023365
vt 0.960531 0.023365
vt 0.960531 0.024313
vt 0.939469 0.024313
vt 0.939469 0.047482
vt 0.960531 0.047482
vt 0.960531 0.048429
vt 0.939469 0.048429
vt 0.981593 0.023365
vt 0.981593 0.024313
vt 0.918407 0.024313
vt 0.918407 0.023365
vt 0.939469 0.005357
vt 0.960531 0.005357
vt 0.960531 0.006305
vt 0.939469 0.006305
vt 0.981593 0.005357
vt 0.981593 0.006305
vt 0.939469 0.065490
vt 0.960531 0.065490
vt 0.960531 0.066438
vt 0.939469 0.066438
vt 0.918407 0.006305
vt 0.918407 0.005357
vt 0.960531 0.023365
vt 0.939469 0.023365
vt 0.939469 0.006305
vt 0.960531 0.006305
vt 0.981593 0.006305
vt 0.981593 0.023365
vt 0.939469 0.065490
vt 0.939469 0.048429
vt 0.960531 0.048429
vt 0.960531 0.065490
vt 0.918407 0.023365
vt 0.918407 0.006305
vt 0.939469 0.023365
vt 0.960531 0.023365
vt 0.960531 0.024313
vt 0.939469 0.024313
vt 0.939469 0.047482
vt 0.960531 0.047482
vt 0.960531 0.048429
vt 0.939469 0.048429
vt 0.981593 0.023365
vt 0.981593 0.024313
vt 0.918407 0.024313
vt 0.918407 0.023365
vt 0.939469 0.005357
vt 0.960531 0.005357
vt 0.960531 0.006305
vt 0.939469 0.006305
vt 0.981593 0.005357
vt 0.981593 0.006305
vt 0.939469 0.065490
vt 0.960531 0.065490
vt 0.960531 0.066438
vt 0.939469 0.066438
vt 0.918407 0.006305
vt 0.918407 0.005357
vt 0.960531 0.023365
vt 0.939469 0.023365
vt 0.939469 0.006305
vt 0.960531 0.006305
vt 0.981593 0.006305
vt 0.981593 0.023365
vt 0.939469 0.065490
vt 0.939469 0.048429
vt 0.960531 0.048429
vt 0.960531 0.065490
vt 0.918407 0.023365
vt 0.918407 0.006305
vn -0.497097 -0.012284 0.867608
vn 0.497097 -0.012284 0.867608
vn 0.536940 -0.012082 0.843534
vn -0.536940 -0.012082 0.843534
vn 0.000000 0.972648 -0.232285
vn 0.000000 0.972648 -0.232285
vn 0.000000 0.972648 -0.232285
vn 0.000000 0.972648 -0.232285
vn -0.536940 -0.012082 -0.843534
vn 0.536940 -0.012082 -0.843534
vn 0.497097 -0.012284 -0.867608
vn -0.497097 -0.012284 -0.867608
vn 0.999982 -0.005998 -0.000000
vn 0.999982 -0.005998 -0.000000
vn -0.999982 -0.005998 0.000000
vn -0.999982 -0.005998 0.000000
vn 0.000000 0.972648 0.232285
vn 0.000000 0.972648 0.232285
vn 0.000000 0.972648 0.232285
vn 0.000000 0.972648 0.232285
vn -0.860580 -0.509316 -0.000000
vn 0.860580 -0.509316 0.000000
vn 0.860580 -0.509316 0.000000
vn -0.860580 -0.509316 -0.000000
vn -0.860580 0.509316 -0.000000
vn 0.860580 0.509316 -0.000000
vn 0.860580 0.509316 -0.000000
vn -0.860580 0.509316 -0.000000
vn -0.860580 -0.509316 0.000001
vn 0.860580 -0.509316 0.000001
vn 0.860580 -0.509315 0.000001
vn -0.860580 -0.509315 0.000001
vn 0.860580 0.509316 0.000001
vn 0.860580 0.509315 0.000001
vn -0.860580 0.509315 0.000001
vn -0.860580 0.509316 0.000001
vn 0.946013 -0.324128 -0.000000
vn -0.946013 -0.324128 -0.000000
vn -0.946013 -0.324128 -0.000000
vn 0.946013 -0.324128 -0.000000
vn 0.946013 0.324128 -0.000000
vn 0.946013 0.324128 -0.000000
vn -0.946013 0.324128 -0.000000
vn -0.946013 0.324128 -0.000000
vn 0.000000 -0.497955 0.867203
vn 0.000000 -0.497955 0.867203
vn 0.000000 -0.497955 0.867203
vn 0.000000 -0.497955 0.867203
vn 0.000000 0.497956 0.867203
vn 0.000000 0.497956 0.867203
vn 0.000000 0.497956 0.867203
vn 0.000000 0.497956 0.867203
vn 1.000000 0.000000 0.000000
vn 1.000000 0.000000 0.000000
vn 1.000000 0.000000 0.000000
vn 1.000000 0.000000 0.000000
vn -1.000000 0.000000 -0.000000
vn -1.000000 0.000000 -0.000000
vn -1.000000 0.000000 -0.000000
vn -1.000000 0.000000 -0.000000
vn 0.000000 -0.466489 -0.884527
vn 0.000000 -0.466489 -0.884527
vn 0.000000 -0.466489 -0.884527
vn 0.000000 -0.466489 -0.884527
vn 1.000000 0.000000 0.000000
vn 1.000000 0.000000 0.000000
vn 1.000000 0.000000 0.000000
vn 1.000000 0.000000 0.000000
vn 0.000000 0.466489 -0.884527
vn 0.000000 0.466489 -0.884527
vn 0.000000 0.466489 -0.884527
vn 0.000000 0.466489 -0.884527
vn -1.000000 -0.000000 0.000000
vn -1.000000 -0.000000 0.000000
vn -1.000000 -0.000000 0.000000
vn -1.000000 -0.000000 0.000000
vn -0.860579 -0.509316 -0.000000
vn 0.860579 -0.509316 0.000000
vn 0.860579 -0.509316 0.000000
vn -0.860579 -0.509316 -0.000000
vn -0.860580 0.509316 -0.000000
vn 0.860579 0.509316 -0.000000
vn 0.860579 0.509316 -0.000000
vn -0.860579 0.509316 -0.000000
vn -0.860578 -0.509318 -0.000000
vn 0.860578 -0.509318 0.000000
vn 0.860579 -0.509317 0.000000
vn -0.860579 -0.509317 -0.000000
vn 0.860579 0.509317 0.000001
vn 0.860579 0.509318 0.000001
vn -0.860579 0.509317 0.000001
vn -0.860579 0.509317 0.000001
vn 0.946013 -0.324128 -0.000000
vn -0.946013 -0.324128 -0.000000
vn -0.946013 -0.324128 -0.000000
vn 0.946013 -0.324128 -0.000000
vn 0.946013 0.324128 -0.000000
vn 0.946013 0.324128 -0.000000
vn -0.946013 0.324128 -0.000000
vn -0.946013 0.324128 -0.000000
vn 0.000000 -0.501661 0.865064
vn 0.000000 -0.501661 0.865064
vn 0.000000 -0.501661 0.865064
vn 0.000000 -0.501661 0.865064
vn 0.000000 0.501661 0.865064
vn 0.000000 0.501661 0.865064
vn 0.000000 0.501661 0.865064
vn 0.000000 0.501661 0.865064
vn 1.000000 0.000000 0.000000
vn 1.000000 0.000000 0.000000
vn 1.000000 0.000000 0.000000
vn 1.000000 0.000000 0.000000
vn -1.000000 0.000000 0.000000
vn -1.000000 0.000000 0.000000
vn -1.000000 0.000000 0.000000
vn -1.000000 0.000000 0.000000
vn 0.000000 -0.470105 -0.882611
vn 0.000000 -0.470105 -0.882611
vn 0.000000 -0.470105 -0.882611
vn 0.000000 -0.470105 -0.882611
vn 1.000000 0.000000 0.000000
vn 1.000000 0.000000 0.000000
vn 1.000000 0.000000 0.000000
vn 1.000000 0.000000 0.000000
vn 0.000000 0.470100 -0.882613
vn 0.000000 0.470100 -0.882613
vn 0.000000 0.470100 -0.882613
vn 0.000000 0.470100 -0.882613
vn -1.000000 -0.000000 0.000000
vn -1.000000 -0.000000 0.000000
vn -1.000000 -0.000000 0.000000
vn -1.000000 -0.000000 0.000000
vn -0.860579 -0.509317 -0.000000
vn 0.860579 -0.509317 0.000000
vn 0.860579 -0.509317 0.000000
vn -0.860579 -0.509317 -0.000000
vn -0.860579 0.509317 -0.000001
vn 0.860579 0.509317 -0.000001
vn 0.860579 0.509317 -0.000001
vn -0.860579 0.509317 -0.000001
vn -0.860582 -0.509313 0.000000
vn 0.860582 -0.509313 0.000000
vn 0.860582 -0.509312 0.000000
vn -0.860582 -0.509312 0.000000
vn 0.860580 0.509316 0.000000
vn 0.860579 0.509317 0.000000
vn -0.860579 0.509317 0.000000
vn -0.860580 0.509316 0.000000
vn 0.946013 -0.324128 -0.000000
vn -0.946013 -0.324128 -0.000000
vn -0.946013 -0.324128 -0.000000
vn 0.946013 -0.324128 -0.000000
vn 0.946013 0.324128 -0.000000
vn 0.946013 0.324128 -0.000000
vn -0.946013 0.324128 -0.000000
vn -0.946013 0.324128 -0.000000
vn 0.000000 -0.495522 0.868595
vn 0.000000 -0.495522 0.868595
vn 0.000000 -0.495522 0.868595
vn 0.000000 -0.495522 0.868595
vn 0.000000 0.495521 0.868596
vn 0.000000 0.495521 0.868596
vn 0.000000 0.495521 0.868596
vn 0.000000 0.495521 0.868596
vn 1.000000 0.000000 0.000000
vn 1.000000 0.000000 0.000000
vn 1.000000 0.000000 0.000000
vn 1.000000 0.000000 0.000000
vn -1.000000 0.000000 0.000000
vn -1.000000 0.000000 0.000000
vn -1.000000 0.000000 0.000000
vn -1.000000 0.000000 0.000000
vn 0.000000 -0.464122 -0.885771
vn 0.000000 -0.464122 -0.885771
vn 0.000000 -0.464122 -0.885771
vn 0.000000 -0.464122 -0.885771
vn 1.000000 -0.000000 0.000000
vn 1.000000 -0.000000 0.000000
vn 1.000000 -0.000000 0.000000
vn 1.000000 -0.000000 0.000000
vn 0.000000 0.464116 -0.885774
vn 0.000000 0.464116 -0.885774
vn 0.000000 0.464116 -0.885774
vn 0.000000 0.464116 -0.885774
vn -1.000000 -0.000000 0.000000
vn -1.000000 -0.000000 0.000000
vn -1.000000 -0.000000 0.000000
vn -1.000000 -0.000000 0.000000
s 1
g Fence_Main
usemtl initialShadingGroup
f 1/1/1 2/2/2 4/4/3 3/3/4
s off
f 9/14/5 10/15/6 6/6/7 5/5/8
s 1
f 5/5/9 6/6/10 8/8/11 7/7/12
f 10/16/13 11/17/14 8/9/11 6/10/10
f 7/11/12 12/18/15 9/13/16 5/12/9
s off
f 3/3/17 4/4/18 10/15/19 9/14/20
s 1
f 2/2/2 11/17/14 10/16/13 4/4/3
f 9/13/16 12/18/15 1/1/1 3/3/4
s 3
f 21/19/21 22/20/22 23/21/23 24/22/24
f 25/23/25 26/24/26 27/25/27 28/26/28
f 22/20/22 27/27/27 26/28/26 23/21/23
f 24/22/24 25/29/25 28/30/28 21/19/21
s 4
f 29/31/29 30/32/30 31/33/31 32/34/32
f 30/32/30 33/35/33 34/36/34 31/33/31
f 35/37/35 34/38/34 33/39/33 36/40/36
f 32/34/32 35/41/35 36/42/36 29/31/29
s 5
f 14/43/37 13/44/38 19/45/39 18/46/40
f 17/47/41 15/48/42 14/43/37 18/46/40
f 20/49/43 16/50/44 15/51/42 17/52/41
f 13/44/38 16/53/44 20/54/43 19/45/39
s off
f 13/44/45 14/43/46 22/20/47 21/19/48
f 15/51/49 16/50/50 28/26/51 27/25/52
f 14/43/53 15/48/54 27/27/55 22/20/56
f 16/53/57 13/44/58 21/19/59 28/30/60
f 18/46/61 19/45/62 32/34/63 31/33/64
f 17/47/65 18/46/66 31/33/67 34/36/68
f 20/49/69 17/52/70 34/38/71 35/37/72
f 19/45/73 20/54/74 35/41/75 32/34/76
s 6
f 45/55/77 46/56/78 47/57/79 48/58/80
f 49/59/81 50/60/82 51/61/83 52/62/84
f 46/56/78 51/63/83 50/64/82 47/57/79
f 48/58/80 49/65/81 52/66/84 45/55/77
s 7
f 53/67/85 54/68/86 55/69/87 56/70/88
f 54/68/86 57/71/89 58/72/90 55/69/87
f 59/73/91 58/74/90 57/75/89 60/76/92
f 56/70/88 59/77/91 60/78/92 53/67/85
s 8
f 38/79/93 37/80/94 43/81/95 42/82/96
f 41/83/97 39/84/98 38/79/93 42/82/96
f 44/85/99 40/86/100 39/87/98 41/88/97
f 37/80/94 40/89/100 44/90/99 43/81/95
s off
f 37/80/101 38/79/102 46/56/103 45/55/104
f 39/87/105 40/86/106 52/62/107 51/61/108
f 38/79/109 39/84/110 51/63/111 46/56/112
f 40/89/113 37/80/114 45/55/115 52/66/116
f 42/82/117 43/81/118 56/70/119 55/69/120
f 41/83/121 42/82/122 55/69/123 58/72/124
f 44/85/125 41/88/126 58/74/127 59/73/128
f 43/81/129 44/90/130 59/77/131 56/70/132
s 9
f 69/91/133 70/92/134 71/93/135 72/94/136
f 73/95/137 74/96/138 75/97/139 76/98/140
f 70/92/134 75/99/139 74/100/138 71/93/135
f 72/94/136 73/101/137 76/102/140 69/91/133
s 10
f 77/103/141 78/104/142 79/105/143 80/106/144
f 78/104/142 81/107/145 82/108/146 79/105/143
f 83/109/147 82/110/146 81/111/145 84/112/148
f 80/106/144 83/113/147 84/114/148 77/103/141
s 11
f 62/115/149 61/116/150 67/117/151 66/118/152
f 65/119/153 63/120/154 62/115/149 66/118/152
f 68/121/155 64/122/156 63/123/154 65/124/153
f 61/116/150 64/125/156 68/126/155 67/117/151
s off
f 61/116/157 62/115/158 70/92/159 69/91/160
f 63/123/161 64/122/162 76/98/163 75/97/164
f 62/115/165 63/120/166 75/99/167 70/92/168
f 64/125/169 61/116/170 69/91/171 76/102/172
f 66/118/173 67/117/174 80/106/175 79/105/176
f 65/119/177 66/118/178 79/105/179 82/108/180
f 68/121/181 65/124/182 82/110/183 83/109/184
f 67/117/185 68/126/186 83/113/187 80/106/188
